<?xml version="1.0" encoding="utf-8"?>
<!-- Svg Vector Icons : http://www.onlinewebfonts.com/icon -->
<!DOCTYPE svg PUBLIC "-//W3C//DTD SVG 1.1//EN" "http://www.w3.org/Graphics/SVG/1.1/DTD/svg11.dtd">
<svg version="1.1" xmlns="http://www.w3.org/2000/svg" xmlns:xlink="http://www.w3.org/1999/xlink" x="0px" y="0px" viewBox="0 0 1000 1000" enable-background="new 0 0 1000 1000" xml:space="preserve">
<metadata> Svg Vector Icons : http://www.onlinewebfonts.com/icon </metadata>
<g><g transform="translate(0.000000,224.000000) scale(0.100000,-0.100000)"><path d="M4125,2077.7C1801.9,1653.3,100-389.9,100-2756.7c0-2716.9,2183.1-4900,4900-4900c2716.9,0,4900,2183.1,4900,4900c0,2384.4-1715,4427.5-4060,4834.4C5389.4,2156.4,4566.9,2156.4,4125,2077.7z M5415.6-1072.3c686.9-179.4,1168.1-700,1299.4-1413.1c131.3-704.4-275.6-1496.3-931.9-1815.6c-350-175-717.5-231.9-1054.4-170.6C3967.5-4331.7,3425-3789.2,3285-3028c-122.5,656.3,218.8,1395.6,800.6,1745.6C4518.7-1024.2,4956.2-954.2,5415.6-1072.3z"/><path d="M4645.6-2157.3c-463.8-310.6-463.8-888.2,0-1198.8c577.5-389.4,1343.1,376.2,953.8,953.7C5367.5-2056.7,4951.9-1951.7,4645.6-2157.3z M5148.8-2454.9c253.7-118.1,240.6-503.1-21.9-608.1c-275.6-113.8-546.9,157.5-437.5,433.1C4772.5-2437.3,4951.9-2367.4,5148.8-2454.9z"/></g></g>
</svg>